<?xml version="1.0" encoding="UTF-8" standalone="no"?>
<svg
   width="1440"
   height="1024"
   fill="none"
   version="1.1"
   id="svg5"
   sodipodi:docname="background.svg"
   inkscape:version="1.4 (1:1.4+202410161351+e7c3feb100)"
   xmlns:inkscape="http://www.inkscape.org/namespaces/inkscape"
   xmlns:sodipodi="http://sodipodi.sourceforge.net/DTD/sodipodi-0.dtd"
   xmlns:xlink="http://www.w3.org/1999/xlink"
   xmlns="http://www.w3.org/2000/svg"
   xmlns:svg="http://www.w3.org/2000/svg">
  <sodipodi:namedview
     id="namedview5"
     pagecolor="#505050"
     bordercolor="#ffffff"
     borderopacity="1"
     inkscape:showpageshadow="0"
     inkscape:pageopacity="0"
     inkscape:pagecheckerboard="1"
     inkscape:deskcolor="#505050"
     inkscape:zoom="0.24861111"
     inkscape:cx="382.1229"
     inkscape:cy="724.02235"
     inkscape:window-width="1850"
     inkscape:window-height="1016"
     inkscape:window-x="0"
     inkscape:window-y="0"
     inkscape:window-maximized="1"
     inkscape:current-layer="svg5" />
  <path
     fill="url(#a)"
     fill-rule="evenodd"
     d="M-217.58 475.75c91.82-72.02 225.52-29.38 341.2-44.74C240 415.56 372.33 315.14 466.77 384.9c102.9 76.02 44.74 246.76 90.31 366.31 29.83 78.24 90.48 136.14 129.48 210.23 57.92 109.99 169.67 208.23 155.9 331.77-13.52 121.26-103.42 264.33-224.23 281.37-141.96 20.03-232.72-220.96-374.06-196.99-151.7 25.73-172.68 330.24-325.85 315.72-128.6-12.2-110.9-230.73-128.15-358.76-12.16-90.14 65.87-176.25 44.1-264.57-26.42-107.2-167.12-163.46-176.72-273.45-10.15-116.29 33.01-248.75 124.87-320.79Z"
     clip-rule="evenodd"
     style="opacity:0.154;fill:url(#linearGradient9);stroke:#c837ab"
     id="path1" />
  <path
     fill="url(#b)"
     fill-rule="evenodd"
     d="M1103.43 115.43c146.42-19.45 275.33-155.84 413.5-103.59 188.09 71.13 409 212.64 407.06 413.88-1.94 201.25-259.28 278.6-414.96 405.96-130 106.35-240.24 294.39-405.6 265.3-163.7-28.8-161.93-274.12-284.34-386.66-134.95-124.06-436-101.46-445.82-284.6-9.68-180.38 247.41-246.3 413.54-316.9 101.01-42.93 207.83 21.06 316.62 6.61Z"
     clip-rule="evenodd"
     style="opacity:0.154;fill:url(#linearGradient11)"
     id="path2" />
  <defs
     id="defs5">
    <linearGradient
       id="linearGradient10"
       inkscape:collect="always">
      <stop
         style="stop-color:#55d400;stop-opacity:1;"
         offset="0"
         id="stop10" />
      <stop
         style="stop-color:#c4df00;stop-opacity:1;"
         offset="1"
         id="stop11" />
    </linearGradient>
    <linearGradient
       id="linearGradient8"
       inkscape:collect="always">
      <stop
         style="stop-color:#7137c8;stop-opacity:1;"
         offset="0"
         id="stop8" />
      <stop
         style="stop-color:#c837c8;stop-opacity:1;"
         offset="1"
         id="stop9" />
    </linearGradient>
    <linearGradient
       id="b"
       x1="373"
       x2="1995.44"
       y1="1100"
       y2="118.03"
       gradientUnits="userSpaceOnUse">
      <stop
         stop-color="#D83333"
         id="stop2" />
      <stop
         offset="1"
         stop-color="#F041FF"
         id="stop3" />
    </linearGradient>
    <linearGradient
       id="a"
       x1="107.37"
       x2="1130.66"
       y1="1993.35"
       y2="1026.31"
       gradientUnits="userSpaceOnUse">
      <stop
         stop-color="#3245FF"
         id="stop4" />
      <stop
         offset="1"
         stop-color="#BC52EE"
         id="stop5" />
    </linearGradient>
    <linearGradient
       inkscape:collect="always"
       xlink:href="#linearGradient8"
       id="linearGradient9"
       x1="-344.40413"
       y1="1027.1577"
       x2="844.12445"
       y2="1027.1577"
       gradientUnits="userSpaceOnUse" />
    <linearGradient
       inkscape:collect="always"
       xlink:href="#linearGradient10"
       id="linearGradient11"
       x1="373.00439"
       y1="549.99756"
       x2="1924.0027"
       y2="549.99756"
       gradientUnits="userSpaceOnUse" />
  </defs>
</svg>
